<svg width="142" height="198"><path fill-rule="evenodd" fill="#FFF" d="M89 0c6.746 3.411 10.936 9.863 16 15 4.567 4.633 10.34 10.729 13 17 7.426 17.508-.382 33.339-8 44-14.278 19.98-39.034 37.501-49 60-3.45 7.789-8.818 21.698-6 34 .889 3.883 4.71 9.557 4 14-.784 4.907-4.128 9.702-6 14h-1c-3.497-22.879-14.88-46.552-4-72 10.232-23.932 36.386-35.067 45-61 7.483-22.53-2.437-44.963-4-65zm47 38c7.897 8.582 7.329 34.145 2 45-13.745 27.998-40.358 42.37-58 66-6.396 8.567-10.116 19.606-17 28v-1c-10.241-12.313 1.107-36.56 7-46 19.901-31.881 65.373-41.219 66-92zM0 100l1-5c18.62-9.237 38.314-9.005 67-9v1c-12.445 8.341-22.916 22.487-28 38-2.209 6.738-.342 17.394-4 23-.376-20.923-14.507-47.974-36-48z"/></svg>