<svg width="17" height="16"><path fill-rule="evenodd" fill="#FFF" d="M13.581 12.761a.164.164 0 01-.157.122.149.149 0 01-.047-.007L7.553 11.12a.16.16 0 01-.108-.107.16.16 0 01.032-.149l5.797-6.791-7.547 6.385a.16.16 0 01-.157.034L.608 8.93a.163.163 0 01-.112-.14.158.158 0 01.088-.155L16.262.699a.164.164 0 01.174.016.16.16 0 01.056.164l-2.911 11.882zm-5.933-.396l1.609.49a.161.161 0 01.104.098.151.151 0 01-.015.14l-1.609 2.518a.163.163 0 01-.181.068.16.16 0 01-.117-.154v-3.007a.162.162 0 01.209-.153z"/></svg>