<svg width="13" height="17"><path fill-rule="evenodd" fill="#FFF" d="M12.22 14.013c.18.437.127.949-.149 1.355a1.478 1.478 0 01-1.227.649H2.122c-.494 0-.952-.242-1.228-.648a1.456 1.456 0 01-.142-1.372l3.059-8.25V3.313c-.58-.2-.995-.745-.995-1.384v-.397c0-.809.664-1.466 1.48-1.466H8.67c.816 0 1.479.657 1.479 1.466v.397a1.47 1.47 0 01-.994 1.385v2.433l3.065 8.266zm-4.861.289a.868.868 0 00.871-.865.867.867 0 00-.871-.862.867.867 0 00-.871.862c0 .477.389.865.871.865zm.514-3.62a.626.626 0 00-.627-.622.627.627 0 00-.629.622c0 .344.282.623.629.623a.626.626 0 00.627-.623zm-3.261 1.957c.28 0 .506-.223.506-.5s-.226-.5-.506-.5a.501.501 0 00-.503.5c0 .277.226.5.503.5zm4.559-10.71v-.397a.5.5 0 00-.501-.497H4.296a.5.5 0 00-.501.497v.397c0 .273.224.496.501.496h.489l.004.485v3.009L3.648 8.997h.045s4.669-.076 5.308-.733l.034-.031-.859-2.314V2.425h.489a.5.5 0 00.506-.496zM6.142 7.787a.679.679 0 01-.682-.676c0-.372.305-.675.682-.675a.68.68 0 01.681.675.68.68 0 01-.681.676z"/></svg>