<svg width="17" height="17"><path fill-rule="evenodd" fill="#FFF" d="M16.954 15.363c0 .645-.608.786-2.701.934-1.42.1-3.304.155-5.306.155-2.002 0-3.886-.055-5.305-.155-2.093-.148-2.701-.289-2.701-.934 0-.646.608-.787 2.701-.934.602-.043 1.29-.076 2.032-.102-1.485-1.287-2.46-3.42-2.46-5.833 0-.311.25-.564.559-.564h10.349c.309 0 .559.253.559.564 0 .298-.02.59-.049.879a1.599 1.599 0 011.76.722c.224.369.291.804.189 1.225a1.612 1.612 0 01-1.558 1.238 1.595 1.595 0 01-1.133-.476 6.847 6.847 0 01-1.672 2.245c.743.025 1.432.059 2.035.102 2.093.147 2.701.288 2.701.934zm-2.733-3.935a.934.934 0 001.708-.268.942.942 0 00-.11-.713.931.931 0 00-1.285-.315c-.004.002-.009.002-.013.005a8.388 8.388 0 01-.339 1.248c.013.014.029.025.039.043zm-.679-2.37h-9.19c.22 3.038 2.197 5.424 4.595 5.424 2.399 0 4.376-2.386 4.595-5.424zm-2.817-2.764a.423.423 0 01-.064.404.42.42 0 01-.333.165l-.031-.001a.885.885 0 01-.704-.486c-.198-.412-.073-.955.382-1.658l.078-.125.026-.043c.351-.589.289-.803.281-.825a.418.418 0 01-.203-.188.42.42 0 01-.033-.324.43.43 0 01.523-.287.815.815 0 01.505.505c.148.407.029.924-.364 1.579-.305.57-.065 1.277-.063 1.284zm-2.354-.12a.453.453 0 01-.423.606l-.037-.002c-.248-.023-.721-.186-.946-.656-.278-.582-.074-1.411.607-2.465a7.01 7.01 0 00.146-.233l.022-.037c.589-.989.535-1.421.484-1.561-.035-.095-.095-.125-.098-.126-.218-.064-.353-.317-.283-.556A.454.454 0 018.401.84c.047.014.475.152.665.674.212.581.019 1.376-.572 2.365-.557 1.037-.128 2.282-.123 2.295z"/></svg>