<svg width="17" height="17"><path fill-rule="evenodd" fill="#FFF" d="M15.617 4.148H9.936l2.241-2.682c.036.007.067.02.104.02a.665.665 0 100-1.331c-.367 0-.667.3-.667.666 0 .08.02.154.046.225L9.068 4.148h-.244L6.233 1.046a.673.673 0 00.045-.225.668.668 0 00-1.335 0c0 .368.3.665.668.665.037 0 .069-.013.103-.02l2.242 2.682H2.275c-.736 0-1.333.597-1.333 1.331v9.319c0 .735.597 1.331 1.333 1.331h13.342c.736 0 1.333-.596 1.333-1.331V5.479c0-.734-.597-1.331-1.333-1.331zm-2.669 9.318c0 .735-.597 1.332-1.334 1.332H3.61a1.334 1.334 0 01-1.335-1.332V6.811c0-.736.598-1.332 1.335-1.332h8.004c.737 0 1.334.596 1.334 1.332v6.655zm1.966-5.948a.95.95 0 110-1.901.951.951 0 110 1.901z"/></svg>